<svg width="302" height="60" viewBox="0 0 302 60" fill="none" xmlns="http://www.w3.org/2000/svg">
<g clip-path="url(#clip0_159559_3503)">
<path d="M4.95672 0H0V35.7986H4.95672V22.5177C4.95672 20.2709 5.51557 18.4984 6.63326 17.2502C7.75095 16.002 9.2817 15.353 11.1769 15.353C12.8049 15.353 14.1655 15.9521 15.2589 17.1004C16.3523 18.2738 16.9112 19.7466 16.9112 21.5191V35.8236H21.8922V21.5191C21.8922 18.2238 20.9932 15.6276 19.1951 13.6804C17.3971 11.7332 15.0402 10.7596 12.1731 10.7596C11.347 10.7596 10.5209 10.8594 9.71906 11.0841C8.89294 11.3088 8.2369 11.5584 7.70235 11.833C7.16781 12.1076 6.65756 12.4072 6.1959 12.7567C5.73424 13.1062 5.41838 13.3558 5.27259 13.5056C5.1268 13.6554 5.00532 13.7552 4.95672 13.8301V0Z" fill="#F0145A"/>
<path d="M32.9726 0H27.8628V35.7689H32.9726V0Z" fill="white"/>
<path d="M63.1114 25.293L63.3669 22.7381C63.3669 19.3145 62.2428 16.453 59.9433 14.1536C57.6439 11.8541 54.7824 10.73 51.3588 10.73C47.9352 10.73 44.9715 11.9563 42.5188 14.4091C40.0661 16.8618 38.8397 19.7744 38.8397 23.2491C38.8397 26.826 40.1172 29.8919 42.621 32.4468C45.1248 35.0017 48.1396 36.2792 51.6143 36.2792C52.9429 36.2792 54.1692 36.0748 55.3956 35.7171C56.6219 35.3083 57.6439 34.8995 58.3593 34.4907C59.1258 34.0308 59.8922 33.5199 60.5565 32.9578C61.2208 32.3957 61.6807 31.9869 61.8851 31.7314C62.0895 31.4759 62.2428 31.3226 62.345 31.1693L59.0236 27.8479L58.2571 28.8188C57.7461 29.432 56.8774 30.0452 55.6511 30.7095C54.3736 31.3737 53.0451 31.6803 51.6143 31.6803C49.6215 31.6803 47.9352 31.0671 46.5045 29.7897C45.0737 28.5122 44.205 27.0304 43.9495 25.293H63.1114ZM51.3588 15.0733C53.2495 15.0733 54.7824 15.6354 56.0599 16.7085C57.2862 17.8327 58.0527 19.2123 58.3593 20.9497H44.1539C44.6138 19.2123 45.4314 17.8327 46.7089 16.7085C47.9352 15.6354 49.5193 15.0733 51.3588 15.0733Z" fill="white"/>
<path d="M86.9429 34.2863C86.9429 36.5347 86.2786 38.3742 84.899 39.805C83.5704 41.1846 81.8842 41.9 79.7891 41.9C78.8694 41.9 77.9496 41.7467 77.0809 41.4912C76.2122 41.2357 75.548 40.9291 74.9859 40.5714C74.4238 40.2137 73.9128 39.856 73.4018 39.3962C72.9419 38.9363 72.6354 38.6297 72.4821 38.4764C72.3288 38.3231 72.2266 38.1698 72.1244 38.0676L68.803 41.389L69.2118 41.9C69.4673 42.2577 69.9271 42.7176 70.5403 43.2285C71.1535 43.6884 71.8689 44.1994 72.6865 44.7104C73.504 45.1703 74.526 45.5791 75.8035 45.9368C77.0809 46.2944 78.4095 46.4988 79.7891 46.4988C83.2638 46.4988 86.1253 45.3236 88.5269 42.9731C90.8775 40.5714 92.0527 37.7099 92.0527 34.2352V11.241H86.9429V13.7959L86.0742 13.0294C85.5121 12.5184 84.6435 12.0074 83.4171 11.4965C82.1907 10.9855 80.8622 10.73 79.5336 10.73C76.4166 10.73 73.7595 11.9052 71.4601 14.3069C69.1607 16.7085 68.0365 19.57 68.0365 22.9936C68.0365 26.4172 69.1607 29.2787 71.4601 31.6803C73.7595 34.0819 76.4166 35.2572 79.5336 35.2572C80.4023 35.2572 81.2199 35.155 82.0885 34.9506C82.9061 34.6951 83.5704 34.4396 84.1325 34.1841C84.6946 33.9286 85.2055 33.622 85.6654 33.2644C86.1253 32.9067 86.483 32.6512 86.5852 32.549L86.9429 32.1913V34.2863ZM73.1463 22.9936C73.1463 20.8475 73.8106 19.059 75.1903 17.5772C76.5699 16.0953 78.2051 15.3288 80.0446 15.3288C81.8842 15.3288 83.5193 16.0953 84.899 17.5772C86.2275 19.059 86.9429 20.8475 86.9429 22.9936C86.9429 25.1397 86.2275 26.9282 84.899 28.41C83.5193 29.8919 81.8842 30.6583 80.0446 30.6583C78.2051 30.6583 76.5699 29.8919 75.1903 28.41C73.8106 26.9282 73.1463 25.1397 73.1463 22.9936Z" fill="white"/>
<path d="M118.724 35.7682V19.9277C118.724 17.3217 117.753 15.1244 115.863 13.3871C113.972 11.5987 111.519 10.73 108.504 10.73C107.329 10.73 106.154 10.8833 105.03 11.1899C103.906 11.5476 102.986 11.9052 102.321 12.314C101.657 12.7228 100.993 13.1827 100.38 13.7448C99.7666 14.2558 99.4089 14.6135 99.2045 14.8179C99.0512 15.0222 98.8979 15.1755 98.7957 15.3288L102.117 18.6502L102.781 17.7816C103.19 17.2195 103.906 16.7085 104.979 16.1464C106.052 15.5843 107.227 15.3288 108.504 15.3288C109.986 15.3288 111.213 15.7887 112.183 16.6574C113.154 17.5261 113.614 18.6502 113.614 19.9277L104.672 21.4606C102.475 21.8183 100.686 22.687 99.46 24.0667C98.1825 25.4463 97.5182 27.1326 97.5182 29.1254C97.5182 31.016 98.3358 32.6512 99.971 34.0819C101.657 35.5638 103.701 36.2792 106.205 36.2792C107.074 36.2792 107.891 36.177 108.709 35.9215C109.577 35.7171 110.242 35.4616 110.804 35.2061C111.366 34.9506 111.877 34.644 112.337 34.2863C112.797 33.9287 113.103 33.6732 113.308 33.571C113.461 33.4177 113.563 33.2644 113.614 33.2133V35.7682H118.724ZM106.971 31.6803C105.643 31.6803 104.57 31.3737 103.803 30.7606C102.986 30.1474 102.628 29.432 102.628 28.6144C102.628 27.7457 102.884 26.9793 103.446 26.4172C104.008 25.8551 104.774 25.4463 105.694 25.293L113.614 24.0156V24.5265C113.614 26.826 113.052 28.5633 111.877 29.8408C110.702 31.0671 109.066 31.6803 106.971 31.6803Z" fill="white"/>
<path d="M130 0H124.89V35.7689H130V0Z" fill="white"/>
<path d="M0 53.1185H1.59915V58.7253H5.06396V60.0283H0V53.1185Z" fill="white"/>
<path d="M15.5016 58.5477H12.2934L11.6814 60.0283H10.0428L13.1226 53.1185H14.702L17.7917 60.0283H16.1136L15.5016 58.5477ZM14.9982 57.3335L13.9025 54.688L12.8067 57.3335H14.9982Z" fill="white"/>
<path d="M33.5121 53.1185L31.2516 60.0283H29.534L28.0138 55.3494L26.4443 60.0283H24.7366L22.4662 53.1185H24.1245L25.6842 57.9751L27.313 53.1185H28.7937L30.3731 58.0146L31.9821 53.1185H33.5121Z" fill="white"/>
<path d="M50.5232 60.1468C49.819 60.1468 49.1807 59.9954 48.6082 59.6927C48.0422 59.3834 47.5947 58.959 47.2657 58.4193C46.9432 57.8731 46.782 57.2578 46.782 56.5734C46.782 55.889 46.9432 55.277 47.2657 54.7373C47.5947 54.1911 48.0422 53.7667 48.6082 53.464C49.1807 53.1547 49.8223 53 50.5331 53C51.1319 53 51.6716 53.1053 52.152 53.3159C52.6389 53.5265 53.047 53.8292 53.376 54.224L52.3494 55.1717C51.8821 54.6321 51.303 54.3622 50.612 54.3622C50.1843 54.3622 49.8026 54.4577 49.467 54.6485C49.1313 54.8328 48.8681 55.0927 48.6773 55.4283C48.493 55.764 48.4009 56.1456 48.4009 56.5734C48.4009 57.0012 48.493 57.3828 48.6773 57.7185C48.8681 58.0541 49.1313 58.3173 49.467 58.5082C49.8026 58.6924 50.1843 58.7846 50.612 58.7846C51.303 58.7846 51.8821 58.5115 52.3494 57.9653L53.376 58.9129C53.047 59.3143 52.6389 59.6203 52.152 59.8309C51.665 60.0415 51.1221 60.1468 50.5232 60.1468Z" fill="white"/>
<path d="M62.5933 60.1468C61.876 60.1468 61.2278 59.9922 60.6487 59.6829C60.0761 59.3736 59.6253 58.9491 59.2963 58.4095C58.9738 57.8632 58.8126 57.2512 58.8126 56.5734C58.8126 55.8956 58.9738 55.2868 59.2963 54.7472C59.6253 54.201 60.0761 53.7733 60.6487 53.464C61.2278 53.1547 61.876 53 62.5933 53C63.3106 53 63.9555 53.1547 64.5281 53.464C65.1006 53.7733 65.5514 54.201 65.8804 54.7472C66.2095 55.2868 66.374 55.8956 66.374 56.5734C66.374 57.2512 66.2095 57.8632 65.8804 58.4095C65.5514 58.9491 65.1006 59.3736 64.5281 59.6829C63.9555 59.9922 63.3106 60.1468 62.5933 60.1468ZM62.5933 58.7846C63.0013 58.7846 63.3698 58.6924 63.6989 58.5082C64.0279 58.3173 64.2846 58.0541 64.4688 57.7185C64.6597 57.3828 64.7551 57.0012 64.7551 56.5734C64.7551 56.1456 64.6597 55.764 64.4688 55.4283C64.2846 55.0927 64.0279 54.8328 63.6989 54.6485C63.3698 54.4577 63.0013 54.3622 62.5933 54.3622C62.1853 54.3622 61.8168 54.4577 61.4877 54.6485C61.1587 54.8328 60.8987 55.0927 60.7079 55.4283C60.5236 55.764 60.4315 56.1456 60.4315 56.5734C60.4315 57.0012 60.5236 57.3828 60.7079 57.7185C60.8987 58.0541 61.1587 58.3173 61.4877 58.5082C61.8168 58.6924 62.1853 58.7846 62.5933 58.7846Z" fill="white"/>
<path d="M78.7995 60.0283L78.7896 55.8824L76.7561 59.2979H76.0355L74.0119 55.9713V60.0283H72.5115V53.1185H73.8342L76.4205 57.4125L78.9673 53.1185H80.2802L80.2999 60.0283H78.7995Z" fill="white"/>
<path d="M89.8659 53.1185C90.478 53.1185 91.0077 53.2205 91.4552 53.4245C91.9093 53.6285 92.2581 53.918 92.5016 54.2931C92.7451 54.6682 92.8668 55.1125 92.8668 55.6258C92.8668 56.1325 92.7451 56.5767 92.5016 56.9584C92.2581 57.3335 91.9093 57.623 91.4552 57.8271C91.0077 58.0245 90.478 58.1232 89.8659 58.1232H88.4741V60.0283H86.8749V53.1185H89.8659ZM89.7771 56.8202C90.2575 56.8202 90.6227 56.7182 90.8728 56.5142C91.1229 56.3036 91.2479 56.0074 91.2479 55.6258C91.2479 55.2375 91.1229 54.9414 90.8728 54.7373C90.6227 54.5268 90.2575 54.4215 89.7771 54.4215H88.4741V56.8202H89.7771Z" fill="white"/>
<path d="M103.148 58.5477H99.9396L99.3276 60.0283H97.6889L100.769 53.1185H102.348L105.438 60.0283H103.76L103.148 58.5477ZM102.644 57.3335L101.549 54.688L100.453 57.3335H102.644Z" fill="white"/>
<path d="M117.428 53.1185V60.0283H116.115L112.67 55.8331V60.0283H111.09V53.1185H112.413L115.848 57.3137V53.1185H117.428Z" fill="white"/>
<path d="M127.315 57.5803V60.0283H125.716V57.5605L123.041 53.1185H124.739L126.585 56.1884L128.43 53.1185H130L127.315 57.5803Z" fill="white"/>
<path fill-rule="evenodd" clip-rule="evenodd" d="M149.175 0H155L139.825 47H134L149.175 0Z" fill="#F0145A"/>
<path d="M167.64 35.18C166.08 35.18 164.604 34.964 163.212 34.532C161.82 34.076 160.728 33.512 159.936 32.84L161.088 30.824C161.856 31.4 162.84 31.904 164.04 32.336C165.24 32.744 166.5 32.948 167.82 32.948C169.62 32.948 170.916 32.672 171.708 32.12C172.5 31.544 172.896 30.788 172.896 29.852C172.896 29.156 172.668 28.616 172.212 28.232C171.78 27.824 171.204 27.524 170.484 27.332C169.764 27.116 168.96 26.936 168.072 26.792C167.184 26.648 166.296 26.48 165.408 26.288C164.544 26.096 163.752 25.82 163.032 25.46C162.312 25.076 161.724 24.56 161.268 23.912C160.836 23.264 160.62 22.4 160.62 21.32C160.62 20.288 160.908 19.364 161.484 18.548C162.06 17.732 162.9 17.096 164.004 16.64C165.132 16.16 166.5 15.92 168.108 15.92C169.332 15.92 170.556 16.088 171.78 16.424C173.004 16.736 174.012 17.156 174.804 17.684L173.688 19.736C172.848 19.16 171.948 18.752 170.988 18.512C170.028 18.248 169.068 18.116 168.108 18.116C166.404 18.116 165.144 18.416 164.328 19.016C163.536 19.592 163.14 20.336 163.14 21.248C163.14 21.968 163.356 22.532 163.788 22.94C164.244 23.348 164.832 23.672 165.552 23.912C166.296 24.128 167.1 24.308 167.964 24.452C168.852 24.596 169.728 24.776 170.592 24.992C171.48 25.184 172.284 25.46 173.004 25.82C173.748 26.156 174.336 26.648 174.768 27.296C175.224 27.92 175.452 28.748 175.452 29.78C175.452 30.884 175.14 31.844 174.516 32.66C173.916 33.452 173.028 34.076 171.852 34.532C170.7 34.964 169.296 35.18 167.64 35.18ZM188.17 35.18C186.202 35.18 184.474 34.772 182.986 33.956C181.498 33.116 180.334 31.976 179.494 30.536C178.654 29.072 178.234 27.404 178.234 25.532C178.234 23.66 178.63 22.004 179.422 20.564C180.238 19.124 181.342 17.996 182.734 17.18C184.15 16.34 185.734 15.92 187.486 15.92C189.262 15.92 190.834 16.328 192.202 17.144C193.594 17.936 194.686 19.064 195.478 20.528C196.27 21.968 196.666 23.636 196.666 25.532C196.666 25.652 196.654 25.784 196.63 25.928C196.63 26.048 196.63 26.18 196.63 26.324H180.178V24.416H195.262L194.254 25.172C194.254 23.804 193.954 22.592 193.354 21.536C192.778 20.456 191.986 19.616 190.978 19.016C189.97 18.416 188.806 18.116 187.486 18.116C186.19 18.116 185.026 18.416 183.994 19.016C182.962 19.616 182.158 20.456 181.582 21.536C181.006 22.616 180.718 23.852 180.718 25.244V25.64C180.718 27.08 181.03 28.352 181.654 29.456C182.302 30.536 183.19 31.388 184.318 32.012C185.47 32.612 186.778 32.912 188.242 32.912C189.394 32.912 190.462 32.708 191.446 32.3C192.454 31.892 193.318 31.268 194.038 30.428L195.478 32.084C194.638 33.092 193.582 33.86 192.31 34.388C191.062 34.916 189.682 35.18 188.17 35.18ZM201.869 35V16.1H204.317V21.248L204.065 20.348C204.593 18.908 205.481 17.816 206.729 17.072C207.977 16.304 209.525 15.92 211.373 15.92V18.404C211.277 18.404 211.181 18.404 211.085 18.404C210.989 18.38 210.893 18.368 210.797 18.368C208.805 18.368 207.245 18.98 206.117 20.204C204.989 21.404 204.425 23.12 204.425 25.352V35H201.869ZM221.705 35L213.317 16.1H215.981L223.685 33.632H222.425L230.237 16.1H232.757L224.333 35H221.705ZM236.357 35V16.1H238.913V35H236.357ZM237.653 11.924C237.125 11.924 236.681 11.744 236.321 11.384C235.961 11.024 235.781 10.592 235.781 10.088C235.781 9.584 235.961 9.164 236.321 8.828C236.681 8.468 237.125 8.288 237.653 8.288C238.181 8.288 238.625 8.456 238.985 8.792C239.345 9.128 239.525 9.548 239.525 10.052C239.525 10.58 239.345 11.024 238.985 11.384C238.649 11.744 238.205 11.924 237.653 11.924ZM253.873 35.18C252.001 35.18 250.321 34.772 248.833 33.956C247.369 33.116 246.217 31.976 245.377 30.536C244.537 29.072 244.117 27.404 244.117 25.532C244.117 23.636 244.537 21.968 245.377 20.528C246.217 19.088 247.369 17.96 248.833 17.144C250.321 16.328 252.001 15.92 253.873 15.92C255.481 15.92 256.933 16.232 258.229 16.856C259.525 17.48 260.545 18.416 261.289 19.664L259.381 20.96C258.733 20 257.929 19.292 256.969 18.836C256.009 18.38 254.965 18.152 253.837 18.152C252.493 18.152 251.281 18.464 250.201 19.088C249.121 19.688 248.269 20.54 247.645 21.644C247.021 22.748 246.709 24.044 246.709 25.532C246.709 27.02 247.021 28.316 247.645 29.42C248.269 30.524 249.121 31.388 250.201 32.012C251.281 32.612 252.493 32.912 253.837 32.912C254.965 32.912 256.009 32.684 256.969 32.228C257.929 31.772 258.733 31.076 259.381 30.14L261.289 31.436C260.545 32.66 259.525 33.596 258.229 34.244C256.933 34.868 255.481 35.18 253.873 35.18ZM274.022 35.18C272.054 35.18 270.326 34.772 268.838 33.956C267.35 33.116 266.186 31.976 265.346 30.536C264.506 29.072 264.086 27.404 264.086 25.532C264.086 23.66 264.482 22.004 265.274 20.564C266.09 19.124 267.194 17.996 268.586 17.18C270.002 16.34 271.586 15.92 273.338 15.92C275.114 15.92 276.686 16.328 278.054 17.144C279.446 17.936 280.538 19.064 281.33 20.528C282.122 21.968 282.518 23.636 282.518 25.532C282.518 25.652 282.506 25.784 282.482 25.928C282.482 26.048 282.482 26.18 282.482 26.324H266.03V24.416H281.114L280.106 25.172C280.106 23.804 279.806 22.592 279.206 21.536C278.63 20.456 277.838 19.616 276.83 19.016C275.822 18.416 274.658 18.116 273.338 18.116C272.042 18.116 270.878 18.416 269.846 19.016C268.814 19.616 268.01 20.456 267.434 21.536C266.858 22.616 266.57 23.852 266.57 25.244V25.64C266.57 27.08 266.882 28.352 267.506 29.456C268.154 30.536 269.042 31.388 270.17 32.012C271.322 32.612 272.63 32.912 274.094 32.912C275.246 32.912 276.314 32.708 277.298 32.3C278.306 31.892 279.17 31.268 279.89 30.428L281.33 32.084C280.49 33.092 279.434 33.86 278.162 34.388C276.914 34.916 275.534 35.18 274.022 35.18ZM292.796 35.18C291.236 35.18 289.76 34.964 288.368 34.532C286.976 34.076 285.884 33.512 285.092 32.84L286.244 30.824C287.012 31.4 287.996 31.904 289.196 32.336C290.396 32.744 291.656 32.948 292.976 32.948C294.776 32.948 296.072 32.672 296.864 32.12C297.656 31.544 298.052 30.788 298.052 29.852C298.052 29.156 297.824 28.616 297.368 28.232C296.936 27.824 296.36 27.524 295.64 27.332C294.92 27.116 294.116 26.936 293.228 26.792C292.34 26.648 291.452 26.48 290.564 26.288C289.7 26.096 288.908 25.82 288.188 25.46C287.468 25.076 286.88 24.56 286.424 23.912C285.992 23.264 285.776 22.4 285.776 21.32C285.776 20.288 286.064 19.364 286.64 18.548C287.216 17.732 288.056 17.096 289.16 16.64C290.288 16.16 291.656 15.92 293.264 15.92C294.488 15.92 295.712 16.088 296.936 16.424C298.16 16.736 299.168 17.156 299.96 17.684L298.844 19.736C298.004 19.16 297.104 18.752 296.144 18.512C295.184 18.248 294.224 18.116 293.264 18.116C291.56 18.116 290.3 18.416 289.484 19.016C288.692 19.592 288.296 20.336 288.296 21.248C288.296 21.968 288.512 22.532 288.944 22.94C289.4 23.348 289.988 23.672 290.708 23.912C291.452 24.128 292.256 24.308 293.12 24.452C294.008 24.596 294.884 24.776 295.748 24.992C296.636 25.184 297.44 25.46 298.16 25.82C298.904 26.156 299.492 26.648 299.924 27.296C300.38 27.92 300.608 28.748 300.608 29.78C300.608 30.884 300.296 31.844 299.672 32.66C299.072 33.452 298.184 34.076 297.008 34.532C295.856 34.964 294.452 35.18 292.796 35.18Z" fill="white"/>
</g>
<defs>
<clipPath id="clip0_159559_3503">
<rect width="302" height="60" fill="white"/>
</clipPath>
</defs>
</svg>
